<?xml version="1.0" standalone="no"?>
<!DOCTYPE svg PUBLIC "-//W3C//DTD SVG 20010904//EN"
 "http://www.w3.org/TR/2001/REC-SVG-20010904/DTD/svg10.dtd">
<svg version="1.0" xmlns="http://www.w3.org/2000/svg"
 width="64.000000pt" height="64.000000pt" viewBox="0 0 64.000000 64.000000"
 preserveAspectRatio="xMidYMid meet">

<g transform="translate(0.000000,64.000000) scale(0.100000,-0.100000)"
fill="#000000" stroke="none">
<path d="M272 597 c-12 -13 -22 -33 -22 -45 0 -13 -15 -36 -35 -54 -51 -44
-58 -62 -65 -163 -6 -68 -14 -103 -34 -142 -14 -29 -26 -58 -26 -66 0 -7 -16
-28 -35 -47 -27 -26 -32 -36 -23 -47 9 -12 21 -5 62 36 40 39 59 51 83 51 24
0 33 -6 43 -29 20 -48 47 -66 100 -66 53 0 80 18 100 66 12 27 16 29 66 29 29
0 55 4 58 9 3 5 -6 32 -20 59 -20 39 -28 73 -33 144 -4 52 -10 99 -14 104 -3
6 27 44 68 84 59 58 72 77 63 87 -9 12 -25 0 -84 -58 l-72 -72 -31 24 c-19 15
-30 33 -30 50 -1 32 -39 69 -72 69 -14 0 -35 -10 -47 -23z m76 -39 c3 -14 -3
-18 -27 -18 -29 0 -41 17 -24 34 13 13 48 1 51 -16z m40 -78 c17 -11 32 -23
32 -28 0 -4 -57 -63 -126 -132 -70 -69 -123 -116 -119 -105 4 11 9 58 12 105
3 47 12 98 20 113 31 62 119 85 181 47z m62 -139 c0 -51 12 -110 35 -164 7
-16 -4 -17 -146 -17 l-154 0 124 124 c69 69 128 123 133 120 4 -3 8 -31 8 -63z
m-70 -241 c-26 -48 -94 -48 -120 0 -10 19 -8 20 60 20 68 0 70 -1 60 -20z"/>
</g>
</svg>
