<?xml version="1.0" standalone="no"?>
<!DOCTYPE svg PUBLIC "-//W3C//DTD SVG 20010904//EN"
 "http://www.w3.org/TR/2001/REC-SVG-20010904/DTD/svg10.dtd">
<svg version="1.0" xmlns="http://www.w3.org/2000/svg"
 width="50.000000pt" height="50.000000pt" viewBox="0 0 50.000000 50.000000"
 preserveAspectRatio="xMidYMid meet">

<g transform="translate(0.000000,50.000000) scale(0.100000,-0.100000)"
fill="#000000" stroke="none">
<path d="M78 400 c-35 -39 -64 -74 -66 -79 -3 -10 226 -306 238 -306 12 0 241
296 238 306 -2 5 -31 40 -66 79 l-63 70 -109 0 -109 0 -63 -70z m112 10 c-45
-56 -52 -59 -44 -13 9 51 11 53 45 53 l31 0 -32 -40z m153 33 c2 -5 8 -25 11
-46 8 -46 1 -43 -44 13 l-32 40 31 0 c16 0 32 -3 34 -7z m-39 -55 l46 -53 -50
-3 c-27 -2 -73 -2 -100 0 l-50 3 46 53 c25 28 49 52 54 52 5 0 29 -24 54 -52z
m-182 -14 c-7 -35 -11 -39 -40 -42 -18 -2 -32 0 -32 4 0 10 72 85 77 80 2 -1
0 -21 -5 -42z m328 -36 c0 -10 -57 -11 -63 0 -2 4 -8 25 -11 47 l-8 40 41 -40
c23 -21 41 -43 41 -47z m-327 -45 c2 -10 21 -55 40 -100 20 -46 35 -83 33 -83
-2 0 -32 37 -67 82 -101 130 -96 118 -51 118 29 0 41 -5 45 -17z m237 12 c0
-13 -104 -245 -110 -245 -6 0 -110 232 -110 245 0 3 50 5 110 5 61 0 110 -2
110 -5z m88 -13 c-32 -44 -141 -182 -144 -182 -2 0 13 37 33 83 19 45 38 90
40 100 4 12 16 17 45 17 36 0 38 -1 26 -18z"/>
</g>
</svg>
