<?xml version="1.0" standalone="no"?>
<!DOCTYPE svg PUBLIC "-//W3C//DTD SVG 20010904//EN"
 "http://www.w3.org/TR/2001/REC-SVG-20010904/DTD/svg10.dtd">
<svg version="1.0" xmlns="http://www.w3.org/2000/svg"
 width="64.000000pt" height="64.000000pt" viewBox="0 0 64.000000 64.000000"
 preserveAspectRatio="xMidYMid meet">

<g transform="translate(0.000000,64.000000) scale(0.100000,-0.100000)"
fill="#000000" stroke="none">
<path d="M7 574 c-4 -4 -7 -130 -7 -279 0 -219 3 -275 14 -284 20 -17 558 -11
564 7 3 9 -55 12 -267 12 l-271 0 -2 272 c-3 257 -7 295 -31 272z"/>
<path d="M512 418 c3 -7 17 -15 32 -18 26 -5 25 -7 -48 -79 l-75 -75 -65 62
c-36 35 -73 62 -85 62 -24 0 -91 -56 -91 -76 0 -23 22 -16 57 18 l33 32 64
-62 c39 -38 73 -62 86 -62 14 0 51 28 100 76 77 75 79 76 82 47 2 -17 9 -28
18 -28 12 0 15 13 15 55 l0 55 -64 3 c-48 2 -62 0 -59 -10z"/>
<path d="M113 235 c-3 -9 -3 -18 0 -22 10 -10 37 6 37 22 0 20 -29 20 -37 0z"/>
</g>
</svg>
