<?xml version="1.0" standalone="no"?>
<!DOCTYPE svg PUBLIC "-//W3C//DTD SVG 20010904//EN"
 "http://www.w3.org/TR/2001/REC-SVG-20010904/DTD/svg10.dtd">
<svg version="1.0" xmlns="http://www.w3.org/2000/svg"
 width="50.000000pt" height="50.000000pt" viewBox="0 0 50.000000 50.000000"
 preserveAspectRatio="xMidYMid meet">

<g transform="translate(0.000000,50.000000) scale(0.100000,-0.100000)"
fill="#000000" stroke="none">
<path d="M182 440 c-96 -59 -93 -172 9 -325 28 -41 54 -75 59 -75 15 0 101
138 121 195 24 69 24 112 -1 153 -42 68 -124 91 -188 52z m152 -39 c46 -46 44
-111 -6 -212 -21 -40 -47 -85 -58 -98 l-20 -23 -20 23 c-10 13 -36 56 -57 94
-30 57 -37 81 -38 127 0 47 4 61 25 83 33 36 57 46 104 41 27 -3 49 -14 70
-35z"/>
<path d="M202 367 c-28 -30 -28 -68 1 -95 30 -28 68 -28 95 1 28 30 28 68 -1
95 -30 28 -68 28 -95 -1z m82 -13 c31 -30 9 -84 -34 -84 -24 0 -50 26 -50 50
0 24 26 50 50 50 10 0 26 -7 34 -16z"/>
</g>
</svg>
